<svg xmlns="http://www.w3.org/2000/svg" width="512" height="512" viewBox="0 0 512 512"><path d="M256,0C397.385,0,512,114.615,512,256S397.385,512,256,512,0,397.385,0,256,114.615,0,256,0Z" fill="#fb9d35"/><path d="M512,256H0C0,397.385,114.615,512,256,512S512,397.385,512,256Z" fill="#ff8906"/><path d="M186,401a15,15,0,0,1-15-15V126a15,15,0,0,1,23.782-12.16l180,130a15,15,0,0,1,0,24.32l-180,130A14.988,14.988,0,0,1,186,401Z" fill="#f9f9f9"/><path d="M171,256V386a15,15,0,0,0,23.782,12.16l180-130A15,15,0,0,0,381,256Z" fill="#e2dff4"/></svg>